<?xml version="1.0" encoding="utf-8"?>
<!-- Generator: Adobe Illustrator 19.0.0, SVG Export Plug-In . SVG Version: 6.00 Build 0)  -->
<svg version="1.1" id="Calque_1" xmlns="http://www.w3.org/2000/svg" xmlns:xlink="http://www.w3.org/1999/xlink" x="0px" y="0px"
	 viewBox="-432 241 94 80" style="enable-background:new -432 241 94 80;" xml:space="preserve">
<g>
	<path d="M-399.9,311.4c-0.4-0.2-0.9-0.4-1.3-0.6c-2.3-1.2-3.4-3.1-3.4-5.7c0-13.6,0-27.2,0-40.7c0-0.3,0-0.6,0.1-1
		c13,0,25.9,0,39,0c0,0.5,0.1,0.9,0.1,1.4c0,12.9-0.1,25.8,0.1,38.7c0,3.8-0.9,6.7-4.8,8C-380.1,311.4-390,311.4-399.9,311.4z
		 M-387,287.1c0,5,0,10.1,0,15.1c0,0.3,0,0.6,0,1c0,1.6,0.8,2.4,2.1,2.4c1.2,0,2-0.9,2-2.4c0-2.1,0-4.2,0-6.3c0-8.3,0-16.7,0-25
		c0-0.3,0-0.6,0-0.8c-0.1-1.2-1-2.1-2.1-2.1c-1.1,0.1-1.9,0.9-1.9,2.2C-387,276.4-387,281.7-387,287.1z M-398.4,287.2
		c0,4.2,0,8.3,0,12.5c0,1.3,0,2.6,0,3.9c0.1,1.1,0.9,1.9,1.9,1.9c1.1,0,2-0.7,2.1-1.9c0-0.5,0-0.9,0-1.3c0-8.6,0-17.3,0-25.9
		c0-1.8,0-3.6,0-5.4c0-1.4-1.1-2.4-2.3-2.2c-1.1,0.2-1.8,1.1-1.8,2.7C-398.4,276.7-398.4,282-398.4,287.2z M-371.6,287.2
		L-371.6,287.2c0-5.2,0-10.3,0-15.4c0-0.4,0-0.8-0.1-1.2c-0.2-1.1-0.9-1.7-1.9-1.7s-1.8,0.5-2,1.6c-0.1,0.6-0.1,1.1-0.1,1.7
		c0,10.1,0,20.2,0,30.4c0,0.5,0,1,0.1,1.5c0.2,1,1,1.6,2,1.6c1,0,1.8-0.7,1.9-1.8c0-0.4,0-0.8,0-1.2
		C-371.6,297.4-371.6,292.3-371.6,287.2z"/>
	<path d="M-380.2,250.6c1.1,0.6,2.1,1.4,2.5,2.8c0.1,0.2,0.6,0.4,1,0.4c2.5,0,4.9,0,7.4,0c4.1,0.1,7.3,3.3,7.2,7.2
		c-15.3,0-30.6,0-45.8,0c-0.3-2.3,1.3-5.1,3.7-6.3c1.1-0.5,2.3-0.8,3.5-0.9c2.4-0.1,4.9-0.1,7.3,0c0.7,0,1-0.2,1.2-0.8
		c0.4-1.3,1.4-1.9,2.6-2.4C-386.5,250.6-383.3,250.6-380.2,250.6z"/>
</g>
</svg>
