<?xml version="1.0" encoding="utf-8"?>
<svg version="1.1" id="Utilisateur" xmlns="http://www.w3.org/2000/svg" xmlns:xlink="http://www.w3.org/1999/xlink" x="0px"
	 y="0px" viewBox="0 0 960 560" style="enable-background:new 0 0 960 560;" xml:space="preserve">
<path id="XMLID_19_" d="M262,479.8c0-6.1-0.4-12.1,0.1-18c1.2-16.9,4.5-33.3,11.6-48.8c7.3-15.9,18.2-28.3,33.6-37
	c23.5-13.2,49-21.5,74.3-30.1c9.6-3.3,19.1-6.8,28.4-10.9c8.5-3.8,14.9-16,13.9-25.2c-0.1-1.2-0.9-2.4-1.7-3.5
	c-20.2-28.5-30.9-60.6-36.2-94.7c-2.9-18.7-3.6-37.4-0.1-56.1c6-32.2,26.4-51.9,58.9-56.3c15.3-2.1,30.6-2.3,45.8,0.6
	c32.7,6.3,52,26.5,56.4,59.4c5.3,39.9-3,77.8-18.6,114.4c-4.3,10-10.4,19.3-15.6,29c-1,1.9-1.9,4.3-1.8,6.4
	c0.6,14.1,6,24.9,20.5,29.8c20,6.8,40,13.7,59.7,21.3c11.3,4.3,22.2,9.9,33.1,15.2c23.5,11.4,36.9,30.9,43.6,55.5
	c3.9,14.5,5.8,29.4,5.7,44.4c0,1.5-0.2,2.9-0.3,4.5C536,479.8,399,479.8,262,479.8z"/>
</svg>
