<svg version="1.1" xmlns="http://www.w3.org/2000/svg" xmlns:xlink="http://www.w3.org/1999/xlink" x="0px" y="0px"
	 viewBox="0 0 94 80" style="enable-background:new 0 0 94 80;" xml:space="preserve">
			<path d="M70.4,13.1c0.1,0,0.3,0,0.4,0c0.2,0.1,0.4,0.2,0.6,0.4c1.5,1.5,3,3,4.5,4.5c1.7,1.7,3.4,3.4,5.1,5.1
				c0.3,0.3,0.5,0.6,0.7,0.9c0,0.2,0,0.4,0,0.6c-0.2,0.3-0.4,0.6-0.7,0.8c-2,2-4,3.9-5.9,5.9C66.4,40.1,57.5,49,48.7,57.8
				c-3,3-6.1,5.9-9.1,8.9c-0.4,0.4-0.7,0.4-1.2,0c-0.1-0.1-0.2-0.1-0.2-0.2c-1.7-1.6-3.3-3.3-5-4.9c-1.8-1.7-3.5-3.5-5.3-5.3
				C23,51.7,18,47,13.1,42.4c-0.3-0.3-0.5-0.6-0.8-0.9c0-0.2,0-0.3,0-0.5c0.1-0.2,0.2-0.4,0.4-0.5c3.2-3.3,6.5-6.6,9.7-9.9
				c0.6-0.6,1.3-0.6,2,0c3.1,2.9,6.3,5.9,9.4,8.8c1.6,1.5,3.3,3.1,4.9,4.7c0.1,0.1,0.2,0.2,0.4,0.3c0.2-0.2,0.3-0.4,0.5-0.6
				c10-10,20-20,30.1-30.1C69.9,13.5,70.2,13.3,70.4,13.1z"/>
</svg>
