<?xml version="1.0" encoding="utf-8"?>
<!-- Generator: Adobe Illustrator 19.0.0, SVG Export Plug-In . SVG Version: 6.00 Build 0)  -->
<svg version="1.1" id="carte" xmlns="http://www.w3.org/2000/svg" xmlns:xlink="http://www.w3.org/1999/xlink" x="0px" y="0px"
	 viewBox="-219 21 520 520" style="enable-background:new -219 21 520 520;" xml:space="preserve">
<style type="text/css">
	.st0{fill:#FFFFFF;}
</style>
<g id="icone_france">
	<path id="XMLID_25_" class="st0" d="M233.8,501.4c1-2.1,2-4,3.1-6.3c-1.3-1-2.7-2.1-4.4-3.3c4.3-5.4,1.2-8.7-5.2-10.8
		c2.2-1.7,3.5-2.7,5.1-4c-0.9-1.9-1.9-3.8-2.8-5.7c3.1-6.6,9-10.2,15.9-12.6c0.6-0.2,1.2-0.6,1.6-1.1c2.8-3.4,5.7-4.2,9.8,0.9
		c0.9-6.2,1.7-11.1,2.6-17.3c3.9,3.9,4.4,8,3.7,11.4c-1,4.5-0.4,8.5,0.1,13c0.9,7.8-0.2,15.8-1.3,23.6c-0.6,4.8-2.8,9.4-4.1,14.1
		c-1.2,4.4-2,8.8-3.4,13.1c-0.4,1.3-2.1,2.3-3.2,3.5c-1.1-1-2.1-2.1-3.3-2.8c-1.7-1-3.8-1.4-5.5-2.5c-2-1.3-4.1-2.8-5.2-4.7
		c-0.4-0.7,2.1-2.9,3.4-4.6C238.8,504.1,236.4,502.8,233.8,501.4"/>
	<path id="XMLID_29_" class="st0" d="M169.7,287.7c-1.1,0.4,11.6,1.6,24.3-18.6c22.6,16.5,22.4,55.3-5.4,68.4
		c5.7,7.1,14.8,41.4,22.5,47.6s17.1,4.1,25.3,8.3c4.4,7.8-62.4,48.3-74.9,47.1c-23.7-11.9-59.1-39-74.1-33.7
		c-43.7,13.5-19.5,48.7-40,48.2c-25.7-3-57.6-17-90-23c-24.1-8.7-77.6-13.2-82.5-39.5c1.8,9.9,38.8-98.9,39.7-100.1
		c-2.1-1.9,12.8,30.8,16.6,27c7.2-7.1-19-33.4-20.5-40c27,0.6-40.1-84.1-9.8-74c-12.3-22-45.9-27.6-77.9-49.3
		c5.4,0.8,10.9-23.4-4.4-21.8c33-25.9,109.8,7,109.8,7c20.9-19-7.4-37.1-0.8-64c33,1,16.5,41.4,65,32.6c8.3,2.4,57-68,79.9-67.8
		c14.4,0.1,51.8,81.8,69.8,49.7c0,55.5,96.2,30.3,107.8,62C256.1,170.6,165.9,267.5,169.7,287.7"/>
</g>
</svg>
