<?xml version="1.0" encoding="utf-8"?>
<!-- Generator: Adobe Illustrator 19.0.0, SVG Export Plug-In . SVG Version: 6.00 Build 0)  -->
<svg version="1.1" id="donate" xmlns="http://www.w3.org/2000/svg" xmlns:xlink="http://www.w3.org/1999/xlink" x="0px" y="0px"
	 viewBox="0 0 520 520" style="enable-background:new 0 0 520 520;" xml:space="preserve">
<style type="text/css">
	.st0{fill:#FFFFFF;}
</style>
<path id="_x24__1_" class="st0" d="M239.7,294.5c-14.3-4.9-27.4-9.9-39.1-14.9c-11.7-5.1-21.8-11.2-30.3-18.3
	c-8.5-7.2-15.1-15.7-19.8-25.7c-4.7-9.9-7.1-22.1-7.1-36.4c0-22.2,6.8-40.8,20.5-56c13.7-15.2,33.3-25.5,58.7-31.1V72.5
	c2.9-0.6,7.5-1.5,13.7-2.4c6.2-1,12.5-1.5,19.1-1.5c12.7,0,22.7,2.2,29.8,6.6c7.2,4.4,10.8,13.8,10.8,28.1v6.4
	c20.2,2.6,36.4,7.8,48.7,15.6c12.2,7.8,18.3,18.6,18.3,32.3c0,8.5-2,15.7-5.9,21.8c-3.9,6-8.6,11.2-14.2,15.4
	c-7.2-4.6-16.8-8.6-28.9-12c-12.1-3.4-25.3-5.1-39.6-5.1c-14.7,0-25.4,2-32.3,6.1c-6.8,4.1-10.3,9.2-10.3,15.4c0,4.9,2.1,8.9,6.4,12
	c4.2,3.1,10.6,6,19.1,8.6l25.9,8.3c30.6,9.8,54.2,22.2,70.7,37.4c16.5,15.2,24.7,35.8,24.7,61.9c0,22.2-7,41-21,56.5
	c-14,15.5-34.6,26-61.6,31.5v39.1c-2.9,0.6-7.5,1.5-13.7,2.4c-6.2,1-12.6,1.5-19.1,1.5c-12.7,0-22.7-2.2-29.8-6.6
	c-7.2-4.4-10.8-13.8-10.8-28.1v-4.9c-11.7-1.3-22.4-3.4-32-6.4c-9.6-2.9-17.9-6.7-24.9-11.2c-7-4.6-12.5-9.9-16.4-16.1
	c-3.9-6.2-5.9-13.2-5.9-21c0-9.5,2.8-17.5,8.3-24.2c5.5-6.7,11.6-11.8,18.1-15.4c9.1,7.2,20.3,13.4,33.5,18.6
	c13.2,5.2,27.6,7.8,43.3,7.8c16,0,27.2-2.4,33.7-7.3c6.5-4.9,9.8-10.6,9.8-17.1c0-6.5-2.6-11.5-7.8-14.9c-5.2-3.4-12.6-6.8-22-10
	L239.7,294.5z"/>
</svg>
