<?xml version="1.0" encoding="utf-8"?>
<!-- Generator: Adobe Illustrator 19.0.0, SVG Export Plug-In . SVG Version: 6.00 Build 0)  -->
<svg version="1.1" id="Calque_1" xmlns="http://www.w3.org/2000/svg" xmlns:xlink="http://www.w3.org/1999/xlink" x="0px" y="0px"
	 viewBox="-198 0 561.6 560" style="enable-background:new -198 0 561.6 560;" xml:space="preserve">
<style type="text/css">
	.st0{fill:#355BC9;}
	.st1{fill:#2F53AD;}
	.st2{fill:#F9A11C;}
	.st3{fill:#DDA36F;}
	.st4{fill:#1A1A1A;}
	.st5{fill:#CC8C60;}
	.st6{fill:#774F27;}
	.st7{fill:#AA6F46;}
	.st8{fill:#FFFFFF;}
	.st9{fill:#F33B29;}
	.st10{fill:#754C25;}
	.st11{fill:#0C0908;}
	.st12{fill:#0C0807;}
</style>
<g>
	<path class="st0" d="M-198,560V0h561.6c0,0,0,467.9,0,560H-198z"/>
	<path class="st1" d="M156.7,156.8l206.9,119.5c0,0,0,189.2,0,283.7c-40.8,0-146.4,0-187.2,0c0-2.5-41.4-178-50.9-220.6l0.1-8.9
		L156.7,156.8z"/>
	<path class="st2" d="M166.2,364.6c19,6,38,11.8,56.8,18.3c3.3,1.1,6.3,4.8,8.2,8c6.8,11.3,8.6,24.1,10,36.9
		c4.7,41.2,2.7,82.4,0,123.6c-0.2,2.9,0,5.8,0,8.7c-13.7,0-27.5,0-41.2,0c-2.5-23-7.9-73.8-8.3-73.8c-0.3,0-4.6,18.3-6,25.2
		c-3.2,16.2-6.4,32.4-9.5,48.6c-55.3,0-110.7,0-166,0c-5.2-22-15.7-66.7-17-66.7s-2.2,44.8-3,66.7c-14.6,0-29.1,0-43.7,0
		c-0.8-39-2-77.9-2.1-116.9c0-13.6,2.8-27.1,4.6-40.7c0.9-6.8,4.8-11.4,11.4-14.3c19.5-8.6,38.9-17.8,58.3-26.7
		c1.2-0.6,2.7-0.6,4-0.8C82.8,340.3,136.5,357,166.2,364.6z"/>
	<path class="st3" d="M51.7,303.9c-4.3-5.9-6.1-13.7-8.5-20.8c-1-2.9-1-6.1-1.1-9.2c-0.1-3.9-2-5.9-5.8-6.8c-5.1-1.3-7.2-4.7-7.5-10
		c-0.4-6.6-1.5-13.1-2.3-19.6c-1.2-9.9-1.2-9.9,8.6-9.9c0.5,2.4,1,4.8,1.4,7.2c0.2-0.1,0.4-0.2,0.6-0.3c1-11,2-22.1,3-33.1
		c0.7-14.5,12.6-21.4,20.9-30.8c0.1-0.1,0.4-0.1,0.6-0.2c8.2,2,17.1,2.6,24.4,6.3c6.4,3.2,10.8,2.7,16.8-0.1c17-8,28.7-4.7,38.9,9.8
		c-3,15.3-2.9,30.6-0.9,45c2.2-1.9,4.5-3.9,6.8-5.9c4.6-0.4,6.5,2,6.5,6.2c0,5-0.1,9.9-0.4,14.9c-0.3,7.7-3.9,13.6-9.8,18.6
		c-2.3,2-4.3,5.5-4.7,8.5c-1.9,13.9-3.4,27.7-15.3,37.4c-4.7,3.6-9.3,7.4-14.1,10.9c-9.1,6.6-18.8,10.6-29.8,4.4
		c-5.5-3.1-10.7-6.9-16-10.4c-0.8-1.2-8.2-6.7-8.2-6.7S55.5,309,51.7,303.9z"/>
	<path class="st4" d="M61.6,170.4c-0.2,0.1-0.5,0.1-0.6,0.2c-8.3,9.4-20.2,16.3-20.9,30.8c-2-1.7-4.1-3.4-6.1-5.2
		c-4-5-7.9-10.1-12.9-16.4c2.3-6.3,8.4-10.7,16.9-12.5c2-0.4,4.6-2,5.4-3.7c13.9-30.1,38-41.2,70.8-32.5
		c16.7,4.4,31.3,11.9,42.3,25.5c14,20.1,19.3,43,19.7,66.9c0.3,17.5,0.4,35.2-1.7,52.6c-2.2,18.4-6.9,36.4-10.6,54.6
		c-0.2,1-0.6,2-1.1,2.9c-0.2-2-1.1-4.3-1-6.3c0.5-9.7,1.7-19.3,1.8-29c0-15.1-0.6-30.2-1.2-45.2c-0.8-21.9-4.2-43.3-13.5-63.2
		c-6.3-13.6-15.8-24.5-32.2-26.2c-10.7-1.1-21.5-2.3-32.2-1.8C76.7,162.6,67.6,162.9,61.6,170.4z"/>
	<path class="st5" d="M91.6,392c-10.2-16.5-20.3-33.1-30.5-49.6c-1.2-1.9-2.2-3.9-3.3-5.9c0.8-5.4,1.6-10.9,2.4-16.3
		c0.2-3.5-1.6-7.3-4.2-10.7c0.6-0.5,7.5,5.4,8.1,6.6c3.9,10.5,11.6,17.9,22,20.5c12.3,3.1,25.3,3.7,37.9,5.4c-1.3,2.6-2.7,5.5-4.1,8
		c-7.8,14.4-15.7,28.8-23.6,43.1C93.8,396.9,93.1,392.6,91.6,392z"/>
	<path class="st6" d="M34.1,196.2c2,1.7,4.1,3.4,6.1,5.2c-1,11-2,22.1-3,33.1c-0.2,0.1-0.4,0.2-0.6,0.3c-0.5-2.4-1-4.8-1.4-7.2
		c-0.7-8-1.5-16-2-24.1C33,201.1,33.7,198.6,34.1,196.2z"/>
	<path d="M61.6,170.4c6-7.5,15-8.5,23.1-8.9c10.7-0.6,21.5,0.7,32.2,1.8c16.3,1.7,26,13.2,32.3,26.8c9.2,20,12.7,41.4,13.5,63.2
		c0.5,15.1,1.2,30.2,1.2,45.2c0,9.7-1.2,19.3-1.8,29c-0.1,2,0.4,4,0.7,6.1c-0.6,2.6-1.2,5.2-1.9,8.4c-12.1-4-23.6-7.7-35.2-11.5
		c-0.5-6.4-1.1-12.9-1.7-19.4c11.9-9.7,13.5-23.5,15.3-37.4c0.4-3,2.3-6.6,4.7-8.5c5.9-5,9.5-10.9,9.8-18.6c0.2-5,0.3-9.9,0.4-14.9
		c0-4.2-1.9-6.7-6.5-6.2c-2.8-0.1-4.1-1-3.2-4.2c1.2-4.2,2.3-8.5,2.6-12.7c0.5-7.8,1-15.8-5.3-22.1c-10.2-14.5-22-17.7-38.9-9.8
		c-6,2.8-10.4,3.3-16.8,0.1C78.7,173.1,69.8,172.4,61.6,170.4z"/>
	<path class="st7" d="M125.5,339.4c-0.5,0.9-1.1,1.9-1.6,2.8c-12.7-1.7-25.6-2.4-37.9-5.4c-10.5-2.6-18-10.2-21.9-20.7
		c5.3,3.5,10.5,7.2,16.1,10.3c10.9,6.2,20.6,2.1,29.8-4.5c4.8-3.5,9.4-7.3,14.1-10.9c0.6,6.5,1.2,13,1.8,19.5
		C125.6,333.4,125.5,336.4,125.5,339.4z"/>
	<path class="st8" d="M166.2,364.6c-1.3-2.1-2.6-4.1-3.9-6.2c-7.1-11.1-16.7-19-30-21.3c-2.1-0.4-4.5,1.5-6.8,2.3
		c-0.5,0.9-1.1,1.9-1.6,2.8c-1.3,2.6-2.5,5.2-3.9,7.7c-7.8,14.4-15.7,28.8-23.6,43.1c-2.5,3.9-3.3-0.4-4.8-1.1
		c-10.2-16.5-20.3-33.1-30.5-49.6c-1.2-1.9-2.2-3.9-3.3-5.9c-16.5,1.1-26.6,11.3-34.8,24.2c-11.2,20.6-21.4,64.5-18.1,77.2
		c5.1-7.7,10.3-15.6,15.5-23.4c6.2-7.5,12.5-15,18.7-22.5c0.6,0.4,21.3,47.5,21.4,48.5h-0.1c2.1,4,4.5,7.9,6.3,12
		c8.7,19.7,17.3,39.4,26,59.1c0.7,1,1.4,2,2.3,3.2c1.1-1.8,1.9-3.2,2.7-4.5c10.6-25.1,21.1-50.3,31.8-75.3
		c6.1-14.2,12.4-28.4,18.6-42.6c6.5,7.8,12.9,15.6,19.4,23.4c4.8,7.3,9.6,14.7,14.4,22C181.8,412,175.7,387.9,166.2,364.6z"/>
	<path class="st9" d="M39.1,391.9c0,0,45,99.9,53.6,119.6c-4.2-2.8-8.8-5.3-12.7-8.6c-15.9-13.5-31.7-27.2-47.2-41.1
		c-1.5-1.3-1.8-5.4-1-7.5c2.3-6,5.7-11.5,8.4-17.3c2.3-4.9,1.3-6.5-4.1-6.3c-2.9,0.1-5.7,0.8-8.6,1.1c-5.3,0.6-7.7-1.5-7.1-7.1
		c0.4-3.4-0.1-10.3-0.1-10.3L39.1,391.9z"/>
	<path class="st9" d="M97.7,510.2c10.6-25.1,21.1-50.3,31.8-75.3c6.1-14.2,12.4-28.4,18.6-42.6c6.5,7.8,12.9,15.6,19.4,23.4
		c-0.5,3.8-0.9,7.6-1.6,12.5c-5.7-0.6-11.9-1.3-19.2-2.2c0.5,2.1,0.6,4,1.4,5.5c2.9,5.7,6.5,11.1,9,17c0.9,2,0.5,6-0.9,7.4
		c-17.3,17.3-34.9,34.3-52.5,51.2C102.2,508.7,99.7,509.2,97.7,510.2z"/>
	<path class="st10" d="M141.8,186.4c6.2,6.3,5.7,14.3,5.3,22.1c-0.3,4.3-1.4,8.6-2.6,12.7c-0.9,3.3,0.4,4.1,3.2,4.2
		c-2.3,2-4.6,4-6.8,5.9C138.8,217,138.8,201.7,141.8,186.4z"/>
	<path class="st11" d="M102.3,234.1c6.8-12.1,25.9-13.7,32.3-3.5c-6.7-6-13-2.4-19.5-0.3C110.9,231.7,106.6,232.9,102.3,234.1z"/>
	<path class="st12" d="M47.9,230.4c5.2-9.5,24.1-7.4,32.1,3.3C68.8,235.7,59.6,223.3,47.9,230.4z"/>
</g>
</svg>
