<?xml version="1.0" encoding="utf-8"?>
<!-- Generator: Adobe Illustrator 19.0.0, SVG Export Plug-In . SVG Version: 6.00 Build 0)  -->
<svg version="1.1" id="donate" xmlns="http://www.w3.org/2000/svg" xmlns:xlink="http://www.w3.org/1999/xlink" x="0px" y="0px"
	 viewBox="-219 21 520 520" style="enable-background:new -219 21 520 520;" xml:space="preserve">
<style type="text/css">
	.st0{fill:#FFFFFF;}
</style>
<g id="frise">
	<polygon class="st0" points="272.4,281 110.8,209.3 110.8,209.6 -190.4,209.6 -190.4,352.7 110.8,352.7 110.8,352.7 	"/>
	<rect x="-24.4" y="209.3" width="11.9" height="143.3"/>
	<g>
		<path d="M-180.9,332.2c0-33.5,0-67.3,0-100.8c0.2-0.4,0.2-0.7,0.4-1.1c1.3-2.9,3.3-5.1,6.4-5.3c3.5-0.2,7.1,0,10.6,0
			c2.6,0,5.1,0,7.7,0c2.6,0,5.1,0,7.7,0c2.6,0,5.3,0,7.7,0c2.4,0,5.1,0,7.5,0c2.6,0,5.1,0,7.7,0s5.3,0,7.9,0c2.4,0,5.1,0,7.5,0
			c2.4,0,5.1,0,7.5,0c2.6,0,5.3,0,7.7,0c2.4,0,5.1,0,7.5,0c2.6,0,5.3,0,7.7,0c4.2,0,8.4,0,12.6,0c2.9,0,5.5,0,8.4,0
			c3.1-0.2,6.6,2.2,7.5,4.9c0.2,0.7,0.4,1.1,0.7,1.8c0,33.5,0,67.3,0,100.8c-0.2,0.4-0.4,0.9-0.7,1.3c-1.1,3.1-3.3,4.9-6.6,5.1
			c-2.9,0.2-5.5,0.2-8.4,0.2c-2.6,0-5.3,0-7.7,0c-2.4,0-5.1,0-7.5,0c-2.6,0-5.3,0-7.7,0c-2.4,0-5.1,0-7.5,0c-2.6,0-5.3,0-7.7,0
			c-2.6,0-5.3,0-7.9,0c-2.4,0-5.1,0-7.5,0c-2.4,0-5.1,0-7.5,0c-2.6,0-5.3,0-7.7,0c-2.4,0-5.1,0-7.5,0c-2.6,0-5.3,0-7.7,0
			c-4.2,0-8.4,0-12.6,0c-2.9,0-5.5,0-8.4,0c-4.9,0.2-8.4-1.5-9.7-6.4C-180.7,332.2-180.9,332.2-180.9,332.2z M-62.1,281.7
			c0-0.4,0-0.9,0-1.3c0-4.2,0-8.6,0-12.8s0-8.4,0-12.6c0-3.5,0-7.3,0-10.8c0-3.1-3.1-6.6-6.2-7.1c-1.8-0.2-3.7-0.2-5.5-0.2
			c-2.6,0-5.3,0-7.7,0c-2.6,0-5.1,0-7.7,0c-2.4,0-4.9,0-7.5,0s-5.3,0-7.7,0c-2.6,0-5.3,0-7.9,0c-2.6,0-5.1,0-7.7,0
			c-2.4,0-4.9,0-7.5,0c-2.6,0-5.3,0-7.7,0c-2.6,0-5.3,0-7.9,0c-2.4,0-5.1,0-7.5,0c-2.6,0-5.3,0.2-7.7,0c-6.2-0.4-10.1,3.3-10.1,9.3
			c0,2.2,0,4.6,0,6.8s0,4.4,0,6.6c0,2.6,0,5.3,0,7.7c0,4.2,0,8.4,0,12.6c0,4.4,0,8.6,0,13c0,4.2,0,8.4,0,12.6c0,4.2-0.2,8.4,0,12.6
			c0,4,2,7.1,6,7.9c2.6,0.7,5.3,0.4,7.9,0.4c2.4,0,5.1,0,7.5,0c2.6,0,5.3,0,7.7,0c2.4,0,4.9,0,7.5,0s5.3,0,7.7,0c2.6,0,5.3,0,7.9,0
			c2.6,0,5.1,0,7.7,0c2.4,0,4.9,0,7.5,0c2.6,0,5.3,0,7.7,0c2.6,0,5.3,0,7.9,0c2.4,0,5.1,0,7.5,0c2.4,0,5.1-0.2,7.5,0
			c4,0.2,8.4-3.3,8.6-7.3c0.2-3.7,0.2-7.5,0.2-11.2c0-4.2,0-8.4,0-12.6C-62.1,290.9-62.1,286.3-62.1,281.7z"/>
		<path d="M-66.3,318.3c-32.9,0-65.3,0-98.1,0c8.2-11,16.3-21.6,24.5-32.4c0.9,1.1,1.8,2,2.6,3.1c2.6,3.3,5.3,6.6,7.7,9.7
			c1.8,2.2,3.5,4.4,5.5,6.8c1.1,1.3,2.9,0.7,4.4,0.7c0.4,0,0.9-0.9,1.3-1.5c2.4-5.1,4.9-9.9,7.5-15c2.9-5.7,6-11.7,8.8-17.4
			c3.5-6.8,7.1-13.9,10.6-20.7c0.2-0.7,0.4-1.1,1.1-1.8C-82.6,272.4-74.4,295.1-66.3,318.3z"/>
		<path d="M-156.2,259.4c-0.2-8.4,6.4-13.9,13.2-14.3c8.8-0.7,15,6.2,15.4,13.7c0.4,7.9-6,14.8-14.3,14.8
			C-149.4,273.5-156.2,267.8-156.2,259.4z"/>
	</g>
	<g>
		<path d="M5.4,331.5c0-33.5,0-67.3,0-100.8c0.2-0.4,0.2-0.7,0.4-1.1c1.3-2.9,3.3-5.1,6.4-5.3c3.5-0.2,7.1,0,10.6,0
			c2.6,0,5.1,0,7.7,0c2.6,0,5.1,0,7.7,0s5.3,0,7.7,0s5.1,0,7.5,0c2.6,0,5.1,0,7.7,0s5.3,0,7.9,0c2.4,0,5.1,0,7.5,0
			c2.4,0,5.1,0,7.5,0c2.6,0,5.3,0,7.7,0c2.4,0,5.1,0,7.5,0c2.6,0,5.3,0,7.7,0c4.2,0,8.4,0,12.6,0c2.9,0,5.5,0,8.4,0
			c3.1-0.2,6.6,2.2,7.5,4.9c0.2,0.7,0.4,1.1,0.7,1.8c0,33.5,0,67.3,0,100.8c-0.2,0.4-0.4,0.9-0.7,1.3c-1.1,3.1-3.3,4.9-6.6,5.1
			c-2.9,0.2-5.5,0.2-8.4,0.2c-2.6,0-5.3,0-7.7,0c-2.4,0-5.1,0-7.5,0c-2.6,0-5.3,0-7.7,0c-2.4,0-5.1,0-7.5,0c-2.6,0-5.3,0-7.7,0
			c-2.6,0-5.3,0-7.9,0c-2.4,0-5.1,0-7.5,0c-2.4,0-5.1,0-7.5,0c-2.6,0-5.3,0-7.7,0s-5.1,0-7.5,0c-2.6,0-5.3,0-7.7,0
			c-4.2,0-8.4,0-12.6,0c-2.9,0-5.5,0-8.4,0c-4.9,0.2-8.4-1.5-9.7-6.4C5.6,331.7,5.6,331.5,5.4,331.5z M124.5,281c0-0.4,0-0.9,0-1.3
			c0-4.2,0-8.6,0-12.8s0-8.4,0-12.6c0-3.5,0-7.3,0-10.8c0-3.1-3.1-6.6-6.2-7.1c-1.8-0.2-3.7-0.2-5.5-0.2c-2.6,0-5.3,0-7.7,0
			c-2.6,0-5.1,0-7.7,0c-2.4,0-4.9,0-7.5,0c-2.6,0-5.3,0-7.7,0c-2.6,0-5.3,0-7.9,0s-5.1,0-7.7,0c-2.4,0-4.9,0-7.5,0
			c-2.6,0-5.3,0-7.7,0c-2.6,0-5.3,0-7.9,0c-2.4,0-5.1,0-7.5,0c-2.6,0-5.3,0.2-7.7,0c-6.2-0.4-10.1,3.3-10.1,9.3c0,2.2,0,4.6,0,6.8
			s0,4.4,0,6.6c0,2.6,0,5.3,0,7.7c0,4.2,0,8.4,0,12.6c0,4.4,0,8.6,0,13c0,4.2,0,8.4,0,12.6s-0.2,8.4,0,12.6c0,4,2,7.1,6,7.9
			c2.6,0.7,5.3,0.4,7.9,0.4c2.4,0,5.1,0,7.5,0c2.6,0,5.3,0,7.7,0s4.9,0,7.5,0c2.6,0,5.3,0,7.7,0c2.6,0,5.3,0,7.9,0s5.1,0,7.7,0
			c2.4,0,4.9,0,7.5,0c2.6,0,5.3,0,7.7,0c2.6,0,5.3,0,7.9,0c2.4,0,5.1,0,7.5,0c2.4,0,5.1-0.2,7.5,0c4,0.2,8.4-3.3,8.6-7.3
			c0.2-3.7,0.2-7.5,0.2-11.2c0-4.2,0-8.4,0-12.6C124.5,290.3,124.5,285.6,124.5,281z"/>
		<path d="M120.3,317.6c-32.9,0-65.3,0-98.1,0c8.2-11,16.3-21.6,24.5-32.4c0.9,1.1,1.8,2,2.6,3.1c2.6,3.3,5.3,6.6,7.7,9.7
			c1.8,2.2,3.5,4.4,5.5,6.8c1.1,1.3,2.9,0.7,4.4,0.7c0.4,0,0.9-0.9,1.3-1.5c2.4-5.1,4.9-9.9,7.5-15c2.9-5.7,6-11.7,8.8-17.4
			c3.5-6.8,7.1-13.9,10.6-20.7c0.2-0.7,0.4-1.1,1.1-1.8C104,271.7,112.1,294.5,120.3,317.6z"/>
		<path d="M30.1,258.9c-0.2-8.4,6.4-13.9,13.2-14.3c8.8-0.7,15,6.2,15.4,13.7c0.4,7.9-6,14.8-14.3,14.8
			C37.1,272.8,30.3,267.1,30.1,258.9z"/>
	</g>
</g>
</svg>
