<?xml version="1.0" encoding="utf-8"?>
<!-- Generator: Adobe Illustrator 19.0.0, SVG Export Plug-In . SVG Version: 6.00 Build 0)  -->
<svg version="1.1" id="Calque_1" xmlns="http://www.w3.org/2000/svg" xmlns:xlink="http://www.w3.org/1999/xlink" x="0px" y="0px"
	 viewBox="-199 0 560.5 560" style="enable-background:new -199 0 560.5 560;" xml:space="preserve">
<style type="text/css">
	.st0{fill:#355BC9;}
	.st1{fill:#2D50A8;}
	.st2{fill:#F9A11C;}
	.st3{fill:#A96D36;}
	.st4{fill:#FEFEFE;}
	.st5{fill:#242021;}
	.st6{fill:#684422;}
	.st7{fill:#674421;}
	.st8{fill:#020202;}
	.st9{fill:#070405;}
	.st10{fill:#050404;}
	.st11{fill:#F33B29;}
	.st12{fill:#A96E38;}
</style>
<g>
	<rect x="-199" class="st0" width="560.5" height="560.5"/>
	<polygon class="st1" points="155.8,171.4 361.5,294.3 361.5,560.5 181.1,560.5 143.8,367.1 141.7,360.2 103.3,253.5 	"/>
	<path class="st2" d="M143.8,367.1c22.8,8.8,45.4,18.5,68.6,26c16.4,5.3,36.1,13.1,38.6,30.3c3.5,24.6,8,49.1,10.9,73.8
		c2.4,20.5,0.7,42.1,2.1,62.7c-15.9,0-53.4,0.5-69.3,0.5c1.5-22.1-7-60.9-5.5-83c-2.1,4.1-3.7,27.4-4.4,31.7
		c-3,17.9-0.3,32.9-3.3,50.8c-77.5,0-122,0-199.5,0c0-1.4-2.3-39.6-6.8-61c-2.3-7-5.2-25.6-5.7-25.5c2.3,25.8-1,61.2,1.3,87
		c-14.9,0-52.4,0-67.3,0c-4.1-40.7,0.1-87.2,3.3-117c1.3-7.7,5.5-15.9,9.4-21.5c4.4-6.1,19.7-13.9,26.5-16.9
		c20.3-8.8,40.5-17.8,60.7-26.8c8.7-3.8,17.4-7.5,26.1-11.3c6,7.2,9.6,14.7,10.2,24.8c0.8,14.6,3.6,29.3,6.8,43.6
		c5.4,24,16.7,45.8,27.9,67.4c4.1,7.9,8.9,15.3,13.8,23.8c3.6-5.8,6.6-10.4,9.3-15.2c19.5-34.7,35.8-70.3,37.4-111.1
		C135.4,388.9,134.2,376.4,143.8,367.1z"/>
	<path class="st3" d="M140.3,243.8c8.2,1.7,11.2,4.6,10.9,12.5c-0.2,6.2-1.1,12.4-2.7,18.4c-0.6,2.3-4,3.8-6,5.6
		c-1.3-3.8-2.6-7.7-3.8-11.2c-2.4,15.2-7.4,23.8-15.5,25.1c-3.7-1.3-7.4-2.4-11-3.9c-9.1-3.6-18.1-5.3-26.8,1.1
		c-7.7-5.1-15.6-4.6-23.9-1.5c-4.9,1.8-10.1,3-15.2,4.5c-7.7-0.6-11.6-5.1-12.7-12.4c-0.3-2.3-3.3-9.9-4.2-11.4
		c-1.1,1.5-2.4,2.9-3.1,4.6c-1,2.6-1.6,5.3-2.3,8c-2.8-3.2-7-5.9-8.1-9.6c-1.7-6.1-1.8-12.8-1.7-19.1c0.1-4.3,2.6-8,7.9-8
		c1.8,6.4,3.7,12.8,5.5,19.2c1,0,2.1,0,3.1-0.1c2.2-21.3,7.8-42.2,5.5-64c1.3-1.5,2.4-3.7,4.1-4.4c11.2-4.3,22.2-9.7,33.8-11.8
		c19.6-3.7,38.4,0.1,55,12.1c-3.3,20.8,5.4,39.8,7.9,59.7c0.8,0,1.6,0,2.4,0C139.7,252.7,140,248.2,140.3,243.8z"/>
	<path d="M129.1,197.4c-16.6-12-35.4-15.8-55-12.1c-11.6,2.2-22.6,7.6-33.8,11.8c-1.7,0.6-2.7,2.9-4.1,4.4
		c-5.9,4.7-11.8,9.4-17.7,14.1c-4.9-8.9-9.5-18-14.8-26.7c-3.1-5.1-2.8-8.9,1.9-12.4c1.8-0.1,3.6-0.2,5.4-0.3
		c-2.8-10-2.7-10.1,9.5-11.4C21.1,163,19,158,21,156s7.8-0.1,10.7-1.8c2-4.1-6.2-11.5,2.9-14.5c9.5-1.7,12.8-0.5,15.7-1.6
		s4.3-7.8,7.1-9.6c4.8-2.2,9.5-3.1,14.7-0.4c1.9,1,5.5,0.3,7.4-1c8.8-6.2,18.3,5.8,18.3,7c12-2.5,15.6-0.2,15.8,9.9
		c13.6-4.6,17.4-1.6,15.9,12c11.2-2.1,14.3,0.3,16.1,12.3c0,0.2,1.2,0.3,1.8,0.4c8.4,0.4,10.9,3.3,10.1,11.6
		c10.1,1.1,11.3,3.5,6.4,12.9c-6.1,5.7-12.2,11.3-18.2,17C140.1,206,134.6,201.7,129.1,197.4z"/>
	<path class="st4" d="M143.8,367.1c-9.6,9.3-8.4,21.7-8.8,33.3c-1.6,40.8-17.9,76.5-37.4,111.1c-2.7,4.8-5.7,9.4-9.3,15.2
		c-5-8.5-9.8-16-13.8-23.8c-11.2-21.7-22.6-43.4-27.9-67.4c-3.2-14.4-6-29-6.8-43.6c-0.5-10.1-4.1-17.6-10.2-24.8
		c0.2-1.9,0.4-3.8,0.7-5.7c6,6.3,12,12.6,18,18.8c-1.5,1.6-4.1,3-4.3,4.7c-0.9,7.3-2.2,14.8-1.2,21.9c1.5,10.2,7,12.8,17.2,9.4
		c6.1-2,11.9-4.9,18.3-7.6c8.8,5.7,11.6,5.7,18.7,0c6.4,2.8,12.3,6.3,18.7,8c3.7,1,9.3,0.5,12.2-1.8c8.7-6.8,7.3-28.2-1.6-35.4
		c5.2-6.4,10.3-12.9,15.5-19.3C142.4,362.5,143.1,364.8,143.8,367.1z"/>
	<path class="st5" d="M48.1,380.2c-6-6.3-12-12.5-18-18.8c-8.7-21-9.7-42.8-7-65c0.5-4.4,0.5-8.8,0.7-13.2c0.7-2.7,1.3-5.4,2.3-8
		c0.7-1.7,2.2-3.1,3.3-4.6c1,1.5,3.9,9.2,4.2,11.4c1.1,7.4,5.3,11.7,12.5,12.4c-2.5,0.8-5,1.5-8.4,2.5c8.3,8.1,18.6,7.1,28.1,8.7
		c0.5,1.3,1,2.6,1.5,3.9c-4.2,8-9.9,15.6-12.1,24.1c-1.7,6.6-1.1,15.6,2.3,21.2c6.1,10,14.8,18.4,22.8,27.2
		c2.9,3.2,6.2,6.2,11.4,2.9c10.1-6.5,16.6-16.3,22.2-26.1c4.4-7.7,4.3-17.2,1.2-26c-2.9-8.3-6-16.5-9-24.7c-0.1-0.4,0-0.8,0.2-1.2
		c4-0.9,8.1-1.6,12.1-2.9c5.1-1.7,10.1-3.8,15.2-5.8c-0.3-0.5-7.5-3.3-10.8-4.1c10.1-1.7,13.1-12.9,15.5-25.1
		c1.2,3.5,2.5,7.3,3.8,11.2c1.6,15.3,4.2,30.6,4.3,46c0.1,11.3-3.3,22.7-5.1,34c-5.2,6.4-10.3,12.9-15.5,19.3
		c-2.1,1.4-4.1,3-6.3,4.3c-14.1,7.9-28.5,15.1-45.2,8.3C65.7,388.4,57,384.1,48.1,380.2z"/>
	<path class="st6" d="M18.5,215.7c5.9-4.7,11.8-9.4,17.7-14.1c2.3,21.8-3.3,42.7-5.5,64c-1,0-2.1,0-3.1,0.1
		c-1.8-6.4-3.7-12.8-5.5-19.2C20.9,236.2,19.7,225.9,18.5,215.7z"/>
	<path class="st7" d="M129.1,197.4c5.5,4.3,11.1,8.6,16.6,12.9c-1.8,11.2-3.6,22.3-5.4,33.5c-0.3,4.4-0.6,8.9-0.9,13.3
		c-0.8,0-1.6,0-2.4,0C134.5,237.2,125.7,218.2,129.1,197.4z"/>
	<path class="st8" d="M65.9,305.6c-9.5-1.5-19.8-0.6-28.1-8.7c3.3-1,5.9-1.8,8.4-2.5c5.1-1.5,10.2-2.7,15.2-4.5
		c8.2-3.1,16.2-3.5,23.9,1.5c8.7-6.4,17.7-4.7,26.8-1.1c3.6,1.4,7.4,2.6,11,3.9c3.3,0.8,10.5,3.5,10.8,4.1c-5.1,1.9-10,4.1-15.2,5.8
		c-3.9,1.3-8,1.9-12.1,2.9c-6.7-1.9-13.3-3.9-20-5.6c-0.9-0.2-2.1,0.7-3.2,0.9C77.5,303.3,71.6,304.4,65.9,305.6z"/>
	<path class="st9" d="M127.5,238c-10.8-0.6-20.5-1.1-30.2-1.7c1.8-6.4,8.2-8.9,20.1-7.8C122.9,229,127.2,231,127.5,238z"/>
	<path class="st10" d="M41.5,236.2c3.5-11,20.6-11.1,30.9,0C61.9,236.2,52,236.2,41.5,236.2z"/>
	<path class="st11" d="M48.1,380.2c8.8,4,17.5,8.3,26.5,11.9c16.7,6.8,31.1-0.4,45.2-8.3c2.2-1.2,4.2-2.8,6.3-4.3
		c8.8,7.2,10.2,28.6,1.6,35.4c-2.9,2.2-8.4,2.7-12.2,1.8c-6.4-1.7-12.3-5.1-18.7-8c-7.1,5.8-9.9,5.8-18.7,0
		c-6.4,2.7-12.2,5.6-18.3,7.6c-10.2,3.4-15.7,0.7-17.2-9.4c-1-7.1,0.3-14.6,1.2-21.9C44.1,383.2,46.6,381.7,48.1,380.2z"/>
	<path d="M106.1,308c3,8.2,6.1,16.5,9,24.7c3.1,8.8,3.5,18.1-0.9,25.8c-5.7,9.8-12.4,19.8-22.5,26.3c-5.2,3.3-8.8,0.5-11.7-2.7
		c-7.9-8.8-16.7-17.2-22.8-27.2c-3.4-5.6-4-14.6-2.3-21.2c2.2-8.5,8.2-16.3,12.4-24.3C79.5,320.4,92.5,320,106.1,308z"/>
	<path class="st12" d="M106.4,308c-13.6,11.9-26.8,12.5-39.1,1.5c-0.5-1.3-1-2.6-1.5-3.9c5.8-1.2,11.8-2.4,17.6-3.6
		c1.1-0.2,2.3-1.1,3.2-0.9c6.7,1.8,13.3,3.7,20,5.6C106.4,307.2,106.3,307.6,106.4,308z"/>
</g>
</svg>
