<?xml version="1.0" encoding="utf-8"?>
<svg version="1.1" id="Calque_1" xmlns="http://www.w3.org/2000/svg" xmlns:xlink="http://www.w3.org/1999/xlink" x="0px" y="0px"
	 viewBox="0 0 103.3 94.6" style="enable-background:new 0 0 103.3 94.6;" xml:space="preserve">
<style type="text/css">
	.st0{fill:#355BC9;}
</style>
<g id="XMLID_39_">
	<g id="XMLID_102_">
		<path id="XMLID_103_" d="M8,82.5c-1.1,0-2,0.3-2.6,1c-0.6,0.7-0.9,1.7-0.9,2.9c0,1.3,0.3,2.2,1,2.9c0.7,0.7,1.6,1,2.7,1
			c0.6,0,1.1-0.1,1.5-0.2s0.8-0.3,1.2-0.5c0.2,0.2,0.4,0.4,0.6,0.7s0.2,0.6,0.2,1c0,0.6-0.3,1.1-1,1.5s-1.7,0.6-3,0.6
			c-1,0-1.9-0.1-2.8-0.4c-0.9-0.3-1.6-0.7-2.3-1.3c-0.6-0.6-1.1-1.3-1.5-2.2c-0.4-0.9-0.6-1.9-0.6-3.2c0-1.1,0.2-2.1,0.5-3
			c0.4-0.9,0.8-1.6,1.5-2.2c0.6-0.6,1.3-1.1,2.2-1.4s1.7-0.5,2.7-0.5c1.3,0,2.4,0.2,3.1,0.7c0.7,0.4,1.1,1,1.1,1.7
			c0,0.4-0.1,0.7-0.3,1s-0.4,0.5-0.7,0.7c-0.4-0.2-0.8-0.5-1.2-0.6C9.1,82.6,8.6,82.5,8,82.5z"/>
		<path id="XMLID_105_" d="M24,93.1c-0.1,0-0.4,0.1-0.7,0.1c-0.3,0-0.6,0.1-1,0.1c-0.3,0-0.6,0-0.9-0.1c-0.3,0-0.5-0.1-0.6-0.3
			s-0.3-0.3-0.4-0.5c-0.1-0.2-0.1-0.5-0.1-0.9v-4.9c0-0.6-0.2-1-0.4-1.3c-0.3-0.2-0.7-0.4-1.1-0.4c-0.3,0-0.6,0-0.8,0.1
			c-0.3,0.1-0.5,0.2-0.6,0.3v7.7c-0.1,0-0.4,0.1-0.7,0.1c-0.3,0-0.6,0.1-1,0.1c-0.3,0-0.6,0-0.9-0.1c-0.3,0-0.5-0.1-0.6-0.3
			c-0.2-0.1-0.3-0.3-0.4-0.5c-0.1-0.2-0.1-0.5-0.1-0.9V78.8c0.2,0,0.4-0.1,0.7-0.1s0.6-0.1,1-0.1c0.3,0,0.6,0,0.9,0.1
			c0.3,0,0.5,0.1,0.6,0.3c0.2,0.1,0.3,0.3,0.4,0.5c0.1,0.2,0.1,0.5,0.1,0.9v2.1c0.2-0.1,0.5-0.2,0.9-0.3c0.4-0.1,0.8-0.1,1.3-0.1
			c1.4,0,2.6,0.4,3.4,1.1c0.8,0.7,1.2,1.8,1.2,3.2V93.1z"/>
		<path id="XMLID_107_" d="M30,93.1c-0.1,0-0.4,0.1-0.7,0.1c-0.3,0-0.6,0.1-1,0.1c-0.3,0-0.6,0-0.9-0.1c-0.3,0-0.5-0.1-0.6-0.3
			s-0.3-0.3-0.4-0.5c-0.1-0.2-0.1-0.5-0.1-0.9V85c0-0.3,0.1-0.6,0.2-0.9c0.1-0.2,0.3-0.5,0.5-0.6c0.2-0.2,0.5-0.4,0.9-0.5
			s0.7-0.3,1.1-0.4c0.4-0.1,0.8-0.2,1.2-0.3c0.4-0.1,0.8-0.1,1.3-0.1c0.7,0,1.3,0.1,1.7,0.4c0.4,0.3,0.6,0.7,0.6,1.3
			c0,0.2,0,0.4-0.1,0.6c-0.1,0.2-0.1,0.4-0.2,0.5c-0.3,0-0.6,0-0.9,0c-0.3,0-0.6,0.1-0.9,0.1c-0.3,0.1-0.6,0.1-0.9,0.2
			c-0.3,0.1-0.5,0.1-0.7,0.2V93.1z"/>
		<path id="XMLID_109_" d="M45.8,87.8c0,0.9-0.1,1.7-0.4,2.4c-0.3,0.7-0.7,1.3-1.2,1.8s-1.1,0.8-1.8,1.1s-1.5,0.4-2.3,0.4
			s-1.6-0.1-2.3-0.4c-0.7-0.3-1.3-0.6-1.8-1.1c-0.5-0.5-0.9-1.1-1.2-1.8s-0.4-1.5-0.4-2.4c0-0.9,0.1-1.6,0.4-2.3s0.7-1.3,1.2-1.8
			s1.1-0.9,1.8-1.1c0.7-0.3,1.5-0.4,2.3-0.4s1.6,0.1,2.3,0.4s1.3,0.6,1.8,1.1c0.5,0.5,0.9,1.1,1.2,1.8
			C45.7,86.2,45.8,86.9,45.8,87.8z M38.2,87.8c0,0.9,0.2,1.6,0.5,2c0.3,0.5,0.8,0.7,1.4,0.7c0.6,0,1.1-0.2,1.4-0.7
			c0.3-0.5,0.5-1.2,0.5-2s-0.2-1.6-0.5-2c-0.3-0.5-0.8-0.7-1.4-0.7c-0.6,0-1.1,0.2-1.4,0.7C38.4,86.2,38.2,86.9,38.2,87.8z"/>
		<path id="XMLID_112_" d="M54.4,86.4c0-0.5-0.1-0.8-0.4-1c-0.3-0.2-0.6-0.3-1-0.3c-0.3,0-0.6,0-0.9,0.1c-0.3,0.1-0.5,0.2-0.7,0.3
			v7.6c-0.1,0-0.4,0.1-0.7,0.1c-0.3,0-0.6,0.1-1,0.1c-0.3,0-0.6,0-0.9-0.1c-0.3,0-0.5-0.1-0.6-0.3s-0.3-0.3-0.4-0.5
			c-0.1-0.2-0.1-0.5-0.1-0.9V85c0-0.4,0.1-0.7,0.3-1s0.4-0.5,0.7-0.7c0.5-0.4,1.1-0.6,1.9-0.9c0.8-0.2,1.6-0.3,2.5-0.3
			c1.6,0,2.9,0.4,3.8,1.1s1.3,1.7,1.3,3v6.9c-0.1,0-0.4,0.1-0.7,0.1c-0.3,0-0.6,0.1-1,0.1c-0.3,0-0.6,0-0.9-0.1
			c-0.3,0-0.5-0.1-0.6-0.3s-0.3-0.3-0.4-0.5c-0.1-0.2-0.1-0.5-0.1-0.9V86.4z"/>
		<path id="XMLID_114_" d="M71.4,87.8c0,0.9-0.1,1.7-0.4,2.4c-0.3,0.7-0.7,1.3-1.2,1.8c-0.5,0.5-1.1,0.8-1.8,1.1
			c-0.7,0.2-1.5,0.4-2.3,0.4s-1.6-0.1-2.3-0.4s-1.3-0.6-1.8-1.1c-0.5-0.5-0.9-1.1-1.2-1.8S60,88.7,60,87.8c0-0.9,0.1-1.6,0.4-2.3
			s0.7-1.3,1.2-1.8c0.5-0.5,1.1-0.9,1.8-1.1s1.5-0.4,2.3-0.4s1.6,0.1,2.3,0.4c0.7,0.3,1.3,0.6,1.8,1.1c0.5,0.5,0.9,1.1,1.2,1.8
			C71.3,86.2,71.4,86.9,71.4,87.8z M63.8,87.8c0,0.9,0.2,1.6,0.5,2c0.3,0.5,0.8,0.7,1.4,0.7c0.6,0,1.1-0.2,1.4-0.7
			c0.3-0.5,0.5-1.2,0.5-2s-0.2-1.6-0.5-2c-0.3-0.5-0.8-0.7-1.4-0.7s-1.1,0.2-1.4,0.7C63.9,86.2,63.8,86.9,63.8,87.8z"/>
		<path id="XMLID_117_" d="M77,89.4c0,0.4,0.1,0.6,0.4,0.8c0.2,0.2,0.6,0.2,1,0.2c0.2,0,0.4,0,0.7-0.1c0.2,0,0.4-0.1,0.6-0.1
			c0.1,0.2,0.2,0.3,0.3,0.5c0.1,0.2,0.1,0.4,0.1,0.7c0,0.6-0.2,1-0.6,1.4c-0.4,0.4-1.2,0.5-2.2,0.5c-1.3,0-2.3-0.3-3-0.9
			s-1-1.5-1-2.8v-9.4c0.2,0,0.4-0.1,0.7-0.1c0.3-0.1,0.6-0.1,1-0.1c0.6,0,1.1,0.1,1.5,0.3c0.4,0.2,0.5,0.7,0.5,1.4v1.4h2.9
			c0.1,0.2,0.2,0.4,0.3,0.6c0.1,0.2,0.1,0.5,0.1,0.8c0,0.5-0.1,0.9-0.3,1.1c-0.2,0.2-0.5,0.3-0.9,0.3h-2V89.4z"/>
		<path id="XMLID_119_" d="M92.9,87.8c0,0.9-0.1,1.7-0.4,2.4c-0.3,0.7-0.7,1.3-1.2,1.8c-0.5,0.5-1.1,0.8-1.8,1.1s-1.5,0.4-2.3,0.4
			s-1.6-0.1-2.3-0.4c-0.7-0.3-1.3-0.6-1.8-1.1c-0.5-0.5-0.9-1.1-1.2-1.8s-0.4-1.5-0.4-2.4c0-0.9,0.1-1.6,0.4-2.3s0.7-1.3,1.2-1.8
			c0.5-0.5,1.1-0.9,1.8-1.1c0.7-0.3,1.5-0.4,2.3-0.4s1.6,0.1,2.3,0.4s1.3,0.6,1.8,1.1c0.5,0.5,0.9,1.1,1.2,1.8S92.9,86.9,92.9,87.8z
			 M85.2,87.8c0,0.9,0.2,1.6,0.5,2c0.3,0.5,0.8,0.7,1.4,0.7s1.1-0.2,1.4-0.7c0.3-0.5,0.5-1.2,0.5-2s-0.2-1.6-0.5-2
			c-0.3-0.5-0.8-0.7-1.4-0.7s-1.1,0.2-1.4,0.7C85.4,86.2,85.2,86.9,85.2,87.8z"/>
		<path id="XMLID_122_" d="M94.8,82.5c0-0.7,0.1-1.4,0.4-1.9c0.3-0.5,0.6-1,1-1.3c0.4-0.3,1-0.6,1.5-0.8c0.6-0.2,1.2-0.2,1.9-0.2
			c1.1,0,1.9,0.1,2.4,0.4c0.5,0.3,0.8,0.8,0.8,1.5c0,0.3-0.1,0.6-0.2,0.8s-0.3,0.4-0.4,0.5c-0.3-0.1-0.6-0.1-0.9-0.2
			c-0.3-0.1-0.6-0.1-1-0.1c-0.6,0-1.1,0.1-1.5,0.3c-0.3,0.2-0.5,0.6-0.5,1.1v0.7h3.6c0.1,0.2,0.2,0.4,0.3,0.6
			c0.1,0.2,0.1,0.5,0.1,0.8c0,0.5-0.1,0.9-0.3,1.1c-0.2,0.2-0.5,0.3-0.9,0.3h-2.5v6.9c-0.1,0-0.4,0.1-0.7,0.1c-0.3,0-0.6,0.1-1,0.1
			c-0.3,0-0.6,0-0.9-0.1c-0.3,0-0.5-0.1-0.6-0.3s-0.3-0.3-0.4-0.5c-0.1-0.2-0.1-0.5-0.1-0.9V82.5z"/>
	</g>
	<g id="Logo_2_">
		<path id="_x3C_Tracé_x3E__2_" class="st0" d="M68.4,1.1c1.8,0.1,3.1,1,3.9,2.6c1.1,2,2.2,3.9,3.4,5.9c0.3,0.5,0.9,1.2,1.4,1.2
			c1.5,0.2,2.9,0.1,4.4,0c0.3,0,0.8-0.4,0.9-0.7c0.3-1.4,2-2.6,3.3-2.6c2.1,0,4.2,0,6.3,0c1.6,0,2.9,1.2,3.2,2.8
			c0.1,0.7,0.4,1.2,1.1,1.5c0.8,0.4,1.5,0.9,2.2,1.5c1.9,1.7,3.4,3.8,3.4,6.4c0.1,11.8,0.1,23.6,0,35.5c0,1.5-0.5,3.2-1.1,4.6
			c-0.9,2.3-2.3,4.2-4.1,5.9c-2.3,2-5,3.5-8.1,3.8c-2.1,0.2-4.2,0.2-6.3,0.2c-7.2,0-14.5,0-21.7,0c-0.6,0-1.2,0.1-1.2-0.9
			c0-2.7,0-5.4,0-8.1c0-0.6,0.2-0.9,0.9-1c1-0.2,2-0.3,2.9-0.7c3.1-1.1,5.9-2.6,8.4-4.8c4.5-4,7-9,7.6-14.9c0.4-4.2-0.1-8.2-1.9-12
			c-1.7-3.7-4.2-6.8-7.6-9.2c-2.8-2-5.9-3.2-9.2-3.9c-0.7-0.2-0.9-0.4-0.9-1.1c0-3.6,0-12.1,0-12.1S65.4,1,68.4,1.1z M88.9,22.2
			c2.8-0.1,4.8-1.9,4.9-4.9c0-2.9-2.5-5-5-4.9c-2.2,0-5,2.2-4.7,5C84,20.1,86.2,22.3,88.9,22.2z"/>
		<path id="XMLID_44_" class="st0" d="M58.8,0.8c-4.7,0-9.4-0.2-14,0.1c-4,0.2-6.9,2.5-8.5,6.2c-0.6,1.3-0.7,2.9-0.7,4.4
			c-0.1,15.9,0,31.8,0,47.7c0,4.4,1.8,7.7,5.8,9.5c1.5,0.7,3.2,1.1,4.9,1.2c4.1,0.2,8.1,0.1,12.2,0c0.1,0,0.2,0,0.4-0.1
			C58.8,46.8,58.8,23.7,58.8,0.8z"/>
		<path id="XMLID_43_" class="st0" d="M32.5,59.3c0-1.1,0-2.1,0-3.2c0-0.7-0.2-0.9-0.9-0.9c-2.6,0-5.2,0-7.8,0c-1.7,0-3.5,0-5.2,0
			c-0.9,0-1.1-0.3-1.1-1.1c0-10.8,0-21.5,0-32.3c0-1.3,0-1.3-1.3-1.3c-0.9,0-2-0.2-2.6,0.2c-0.4,0.4-0.2,1.6-0.2,2.5
			c0,0.9-0.1,1.7,0,2.6c0.1,1-0.3,1.2-1.2,1.2c-3.4,0-6.8,0-10.2,0c-1.3,0-1.3,0-1.3,1.2c0,6.6,0,13.1,0,19.7c0,0.8,0.3,1,1,0.9
			c3.5,0,7.1,0,10.6,0c0.8,0,1.2,0.2,1.2,1.1c-0.1,2.8,0,5.7,0,8.6c0,0.5,0,0.8,0.7,0.8c6,0,11.9,0,17.9,0
			C32.1,59.3,32.3,59.3,32.5,59.3z"/>
		<path id="XMLID_42_" class="st0" d="M59.5,21.6c0,10.3,0,20.4,0,30.7c3.8-0.8,6.9-2.8,9.1-5.8c3.8-5.1,4.5-10.8,1.6-16.5
			C68.1,25.6,64.5,22.8,59.5,21.6z"/>
		<path id="XMLID_41_" class="st0" d="M32.5,32.4c0-6.2,0-12.4,0-18.6c0-0.7-0.2-0.9-0.8-0.9c-0.8,0-1.6,0-2.4,0
			c-0.7,0-0.9,0.2-0.9,1c0,3.5,0,6.9,0,10.4c0,8.9,0,17.8,0,26.7c0,0.8,0.2,1.3,1.1,1.1c0.6-0.1,1.3-0.1,1.9,0
			c0.9,0.1,1.2-0.2,1.2-1.1c0-5.2,0-10.5,0-15.7C32.5,34.3,32.5,33.3,32.5,32.4z"/>
		<path id="XMLID_40_" class="st0" d="M20.8,33.4c0,5.9,0,11.7,0,17.6c0,0.8,0.2,1.2,1.1,1.1c0.8-0.1,1.6,0,2.4,0
			c0.5,0,0.8-0.2,0.7-0.7c0-0.4,0-0.9,0-1.3c0-11.4,0-22.7,0-34.1c0-0.9-0.2-1.2-1.1-1.1c-0.7,0.1-1.4,0.1-2.1,0c-0.8-0.1-1,0.2-1,1
			c0,3.7,0,7.3,0,10.9C20.8,29,20.8,31.2,20.8,33.4z"/>
	</g>
</g>
</svg>
