<?xml version="1.0" encoding="utf-8"?>
<!-- Generator: Adobe Illustrator 19.0.0, SVG Export Plug-In . SVG Version: 6.00 Build 0)  -->
<svg version="1.1" id="premium" xmlns="http://www.w3.org/2000/svg" xmlns:xlink="http://www.w3.org/1999/xlink" x="0px" y="0px"
	 viewBox="-219 21 520 520" style="enable-background:new -219 21 520 520;" xml:space="preserve">
<style type="text/css">
	.st0{fill:#FFFFFF;}
	.st1{fill:#355BC9;}
	.st2{enable-background:new    ;}
	.st3{fill:#FFFFFF;stroke:#000000;stroke-miterlimit:10;}
</style>
<g id="premium_x5F_blanc">
	<polygon id="contour_1_" class="st0" points="41,50.4 75.1,78.5 116.4,63 139.5,100.6 183.6,99.3 193.2,142.4 235.4,155.6 
		230.5,199.5 266.1,225.6 247.2,265.5 272.4,301.8 241.6,333.4 253.7,375.9 214.2,395.8 211.8,439.9 168.1,445.9 151.5,486.8 
		108.2,478.3 79.2,511.6 41,489.5 2.8,511.6 -26.2,478.3 -69.5,486.8 -86.1,445.9 -129.8,439.9 -132.2,395.8 -171.7,375.9 
		-159.6,333.4 -190.4,301.8 -165.2,265.5 -184.1,225.6 -148.5,199.5 -153.4,155.6 -111.2,142.4 -101.6,99.3 -57.5,100.6 -34.4,63 
		6.9,78.5 	"/>
	<g id="cercle_1_">
		<path id="XMLID_129_" d="M41,155.9c73.3,0,132.7,59.4,132.7,132.7S114.3,421.3,41,421.3S-91.7,361.9-91.7,288.6
			S-32.3,155.9,41,155.9 M41,107.9c-24.4,0-48,4.8-70.3,14.2c-21.5,9.1-40.8,22.1-57.4,38.7s-29.6,35.9-38.7,57.4
			c-9.4,22.3-14.2,46-14.2,70.3s4.8,48,14.2,70.3c9.1,21.5,22.1,40.8,38.7,57.4s35.9,29.6,57.4,38.7c22.3,9.4,46,14.2,70.3,14.2
			s48-4.8,70.3-14.2c21.5-9.1,40.8-22.1,57.4-38.7s29.6-35.9,38.7-57.4c9.4-22.3,14.2-46,14.2-70.3s-4.8-48-14.2-70.3
			c-9.1-21.5-22.1-40.8-38.7-57.4s-35.9-29.6-57.4-38.7C89,112.7,65.4,107.9,41,107.9L41,107.9z"/>
	</g>
	<g id="etoile">
		<polygon id="XMLID_3_" class="st0" points="41.4,115.1 46.5,126.3 58.8,127.7 49.7,136.1 52.1,148.2 41.4,142.2 30.6,148.2 
			33,136.1 23.9,127.7 36.2,126.3 		"/>
		<polygon id="XMLID_6_" class="st0" points="86.3,121.1 88.3,133.3 99.8,137.8 88.9,143.6 88.1,155.9 79.2,147.3 67.3,150.3 
			72.8,139.3 66.2,128.8 78.4,130.6 		"/>
		<polygon id="XMLID_7_" class="st0" points="128.1,138.5 126.9,150.8 136.8,158.2 124.8,160.9 120.8,172.6 114.5,162 102.2,161.8 
			110.3,152.6 106.6,140.8 118,145.7 		"/>
		<polygon id="XMLID_8_" class="st0" points="163.9,166.2 159.7,177.8 167.3,187.4 155,187 148.1,197.2 144.8,185.3 132.9,182 
			143.2,175.1 142.7,162.8 152.4,170.4 		"/>
		<polygon id="XMLID_9_" class="st0" points="191.4,202.2 184.3,212.2 189.2,223.6 177.4,219.9 168.1,228.1 168,215.7 157.3,209.4 
			169,205.4 171.8,193.4 179.1,203.3 		"/>
		<polygon id="XMLID_10_" class="st0" points="208.7,244 199.2,251.9 201,264.2 190.5,257.6 179.4,263 182.5,251.1 173.9,242.2 
			186.2,241.4 191.9,230.5 196.5,242 		"/>
		<polygon id="XMLID_11_" class="st0" points="214.5,289 203.3,294.1 201.8,306.4 193.5,297.3 181.3,299.7 187.4,289 181.3,278.2 
			193.5,280.6 201.8,271.5 203.3,283.8 		"/>
		<polygon id="XMLID_12_" class="st0" points="208.5,333.8 196.3,335.9 191.7,347.4 186,336.5 173.7,335.7 182.3,326.8 179.3,314.9 
			190.3,320.3 200.8,313.7 199,326 		"/>
		<polygon id="XMLID_13_" class="st0" points="191.1,375.7 178.8,374.5 171.4,384.4 168.7,372.4 157,368.4 167.6,362.1 167.7,349.7 
			177,357.9 188.8,354.2 183.9,365.6 		"/>
		<polygon id="XMLID_14_" class="st0" points="163.4,411.5 151.8,407.2 142.1,414.9 142.6,402.6 132.4,395.7 144.2,392.4 
			147.6,380.5 154.4,390.7 166.8,390.2 159.1,399.9 		"/>
		<polygon id="XMLID_15_" class="st0" points="127.4,439 117.3,431.9 106,436.8 109.7,425 101.5,415.7 113.9,415.5 120.2,404.9 
			124.1,416.6 136.2,419.3 126.3,426.7 		"/>
		<polygon id="XMLID_16_" class="st0" points="85.5,456.3 77.7,446.8 65.4,448.5 72,438.1 66.6,427 78.5,430.1 87.4,421.5 
			88.2,433.8 99.1,439.5 87.6,444.1 		"/>
		<polygon id="XMLID_17_" class="st0" points="40.6,462.1 35.5,450.9 23.2,449.4 32.3,441 29.9,428.9 40.6,435 51.4,428.9 49,441 
			58.1,449.4 45.8,450.9 		"/>
		<polygon id="XMLID_18_" class="st0" points="-4.3,456.1 -6.3,443.9 -17.8,439.3 -6.9,433.6 -6.1,421.3 2.8,429.9 14.7,426.8 
			9.2,437.9 15.8,448.4 3.6,446.6 		"/>
		<polygon id="XMLID_19_" class="st0" points="-46.1,438.7 -44.9,426.4 -54.8,419 -42.8,416.3 -38.8,404.6 -32.5,415.2 -20.2,415.3 
			-28.3,424.6 -24.6,436.4 -36,431.5 		"/>
		<polygon id="XMLID_20_" class="st0" points="-81.9,411 -77.7,399.4 -85.3,389.7 -73,390.2 -66.1,379.9 -62.8,391.8 -50.9,395.2 
			-61.2,402 -60.7,414.4 -70.4,406.7 		"/>
		<polygon id="XMLID_21_" class="st0" points="-109.4,375 -102.3,364.9 -107.2,353.6 -95.4,357.3 -86.1,349.1 -86,361.5 
			-75.3,367.8 -87,371.7 -89.8,383.8 -97.1,373.9 		"/>
		<polygon id="XMLID_22_" class="st0" points="-126.7,333.1 -117.2,325.2 -119,313 -108.5,319.6 -97.4,314.1 -100.5,326.1 
			-91.9,335 -104.2,335.8 -109.9,346.7 -114.5,335.2 		"/>
		<polygon id="XMLID_23_" class="st0" points="-132.5,288.2 -121.3,283 -119.8,270.8 -111.5,279.9 -99.3,277.4 -105.4,288.2 
			-99.3,299 -111.5,296.6 -119.8,305.6 -121.3,293.4 		"/>
		<polygon id="XMLID_24_" class="st0" points="-126.5,243.3 -114.3,241.2 -109.7,229.8 -104,240.7 -91.7,241.5 -100.3,250.3 
			-97.3,262.3 -108.3,256.8 -118.8,263.4 -117,251.2 		"/>
		<polygon id="XMLID_25_" class="st0" points="-109.1,201.5 -96.8,202.7 -89.4,192.7 -86.7,204.8 -75,208.8 -85.6,215.1 
			-85.7,227.4 -95,219.3 -106.8,222.9 -101.9,211.6 		"/>
		<polygon id="XMLID_26_" class="st0" points="-81.4,165.6 -69.8,169.9 -60.1,162.3 -60.6,174.6 -50.4,181.5 -62.2,184.8 
			-65.6,196.7 -72.4,186.4 -84.8,186.9 -77.1,177.2 		"/>
		<polygon id="XMLID_27_" class="st0" points="-45.4,138.1 -35.3,145.3 -24,140.4 -27.7,152.2 -19.5,161.5 -31.9,161.6 -38.2,172.2 
			-42.1,160.5 -54.2,157.8 -44.3,150.4 		"/>
		<polygon id="XMLID_28_" class="st0" points="-3.5,120.9 4.3,130.4 16.6,128.6 10,139.1 15.4,150.1 3.5,147.1 -5.4,155.7 
			-6.2,143.4 -17.1,137.6 -5.6,133.1 		"/>
	</g>
	<rect id="XMLID_83_" x="-218" y="223.6" class="st1" width="518" height="130"/>
	<g class="st2">
		<path class="st0" d="M-174.5,329.4c-0.9,0.2-2.3,0.5-4.1,0.7c-1.9,0.2-3.7,0.4-5.6,0.4c-1.8,0-3.5-0.1-4.9-0.4s-2.6-0.8-3.5-1.5
			c-1-0.7-1.7-1.7-2.2-3s-0.7-3-0.7-5V264c0-1.7,0.5-3,1.4-3.9s2.2-1.7,3.8-2.2c2.7-1,5.8-1.7,9.3-2.1s7-0.7,10.5-0.7
			c11,0,19.5,2.4,25.3,7.1c5.8,4.7,8.8,11.1,8.8,19.2c0,3.9-0.6,7.5-1.9,10.6c-1.2,3.2-3.1,5.9-5.5,8.2c-2.4,2.3-5.5,4-9.2,5.3
			c-3.7,1.2-8,1.9-12.9,1.9h-8.5v22H-174.5z M-168.3,290.8c3.4,0,5.9-0.8,7.7-2.3c1.8-1.6,2.7-3.9,2.7-7.1c0-3-0.9-5.4-2.8-7
			c-1.9-1.6-4.6-2.5-8.2-2.5c-1.3,0-2.3,0-3.2,0.1c-0.8,0-1.7,0.1-2.6,0.3v18.6h6.4V290.8z"/>
		<path class="st0" d="M-109.4,329.7c-0.8,0.2-2.1,0.5-3.8,0.7c-1.7,0.2-3.5,0.4-5.3,0.4s-3.3-0.1-4.7-0.4c-1.4-0.2-2.6-0.7-3.5-1.4
			c-1-0.7-1.7-1.7-2.2-2.9c-0.5-1.2-0.8-2.9-0.8-4.9v-36c0-1.8,0.3-3.4,1-4.7c0.7-1.3,1.7-2.5,2.9-3.5c1.3-1,2.9-2,4.7-2.8
			c1.9-0.8,3.9-1.6,6.1-2.2s4.4-1.1,6.7-1.5c2.3-0.4,4.6-0.5,7-0.5c3.8,0,6.9,0.7,9.1,2.2s3.4,3.9,3.4,7.3c0,1.1-0.2,2.2-0.5,3.3
			c-0.3,1.1-0.7,2.1-1.2,2.9c-1.7,0-3.4,0.1-5.2,0.2c-1.8,0.2-3.5,0.4-5.2,0.7c-1.7,0.3-3.3,0.7-4.7,1c-1.5,0.4-2.7,0.8-3.8,1.3
			C-109.4,288.9-109.4,329.7-109.4,329.7z"/>
		<path class="st0" d="M-51.9,331.8c-4.7,0-9.1-0.7-13.1-2s-7.6-3.3-10.6-5.9s-5.4-6-7.1-10s-2.6-8.7-2.6-14s0.9-9.8,2.6-13.6
			c1.7-3.8,4-6.9,6.8-9.4c2.8-2.4,6-4.2,9.6-5.4c3.6-1.2,7.3-1.7,11-1.7c4.2,0,8.1,0.6,11.6,1.9s6.5,3,9,5.3c2.5,2.2,4.5,4.9,5.9,8
			s2.1,6.5,2.1,10.2c0,2.7-0.8,4.8-2.3,6.2c-1.5,1.4-3.6,2.4-6.4,2.8l-29.6,4.4c0.9,2.6,2.7,4.6,5.4,5.9s5.8,2,9.4,2
			c3.3,0,6.4-0.4,9.3-1.3c2.9-0.8,5.3-1.8,7.1-2.9c1.3,0.8,2.4,1.9,3.2,3.4c0.9,1.4,1.3,3,1.3,4.6c0,3.6-1.7,6.3-5,8
			c-2.6,1.4-5.4,2.3-8.6,2.8C-46.1,331.5-49.1,331.8-51.9,331.8z M-55.2,284.6c-1.9,0-3.6,0.3-5,1c-1.4,0.6-2.5,1.5-3.4,2.5
			c-0.9,1-1.5,2.1-2,3.4c-0.4,1.2-0.7,2.5-0.8,3.8l20.5-3.4c-0.2-1.6-1.1-3.2-2.6-4.8C-50,285.4-52.3,284.6-55.2,284.6z"/>
		<path class="st0" d="M11.1,269.7c3.3,0,6.5,0.5,9.7,1.4s5.9,2.3,8.2,4.1c2.4-1.6,5.1-2.9,8.1-4c3-1,6.6-1.6,10.9-1.6
			c3,0,6,0.4,8.9,1.2c2.9,0.8,5.5,2.1,7.8,3.8c2.3,1.7,4.1,4,5.5,6.8s2,6.3,2,10.4v37.8c-0.8,0.2-2.1,0.5-3.8,0.7
			c-1.7,0.2-3.5,0.4-5.3,0.4s-3.3-0.1-4.7-0.4c-1.4-0.2-2.6-0.7-3.5-1.4s-1.7-1.7-2.2-2.9c-0.5-1.2-0.8-2.9-0.8-4.9v-28.7
			c0-2.4-0.7-4.1-2-5.2c-1.4-1.1-3.2-1.6-5.5-1.6c-1.1,0-2.3,0.3-3.6,0.8s-2.2,1.1-2.9,1.6c0.1,0.3,0.1,0.6,0.1,0.9s0,0.5,0,0.8v40
			c-0.9,0.2-2.2,0.5-3.9,0.7s-3.5,0.4-5.2,0.4c-1.8,0-3.3-0.1-4.7-0.4c-1.4-0.2-2.6-0.7-3.5-1.4s-1.7-1.7-2.2-2.9
			c-0.5-1.2-0.8-2.9-0.8-4.9v-28.7c0-2.4-0.7-4.1-2.2-5.2s-3.3-1.6-5.3-1.6c-1.4,0-2.7,0.2-3.7,0.7c-1,0.4-1.9,0.9-2.6,1.3v42.1
			c-0.8,0.2-2.1,0.5-3.8,0.7s-3.5,0.4-5.3,0.4s-3.3-0.1-4.7-0.4c-1.4-0.2-2.6-0.7-3.5-1.4c-1-0.7-1.7-1.7-2.2-2.9
			c-0.5-1.2-0.8-2.9-0.8-4.9V285c0-2.2,0.5-3.9,1.4-5.2c0.9-1.3,2.2-2.5,3.8-3.6c2.7-1.9,6.1-3.5,10.1-4.7
			C2.5,270.3,6.7,269.7,11.1,269.7z"/>
		<path class="st0" d="M84.2,255.3c0-3,1-5.6,3.1-7.7c2-2.1,4.7-3.1,8.1-3.1s6.1,1,8.1,3.1s3.1,4.6,3.1,7.7c0,3-1,5.6-3.1,7.7
			c-2,2.1-4.7,3.1-8.1,3.1s-6.1-1-8.1-3.1C85.2,260.9,84.2,258.4,84.2,255.3z M105.6,329.7c-0.9,0.2-2.2,0.4-3.9,0.7
			c-1.7,0.3-3.5,0.4-5.2,0.4c-1.8,0-3.3-0.1-4.7-0.4c-1.4-0.2-2.6-0.7-3.5-1.4s-1.7-1.7-2.2-2.9c-0.5-1.2-0.8-2.9-0.8-4.9v-48.8
			c0.9-0.2,2.2-0.4,3.9-0.7c1.7-0.3,3.5-0.4,5.2-0.4c1.8,0,3.3,0.1,4.7,0.4c1.4,0.2,2.6,0.7,3.5,1.4c1,0.7,1.7,1.7,2.2,2.9
			c0.5,1.2,0.8,2.9,0.8,4.9V329.7z"/>
		<path class="st0" d="M118.5,272.4c0.8-0.2,2.1-0.5,3.8-0.7c1.7-0.2,3.5-0.4,5.3-0.4s3.3,0.1,4.7,0.4c1.4,0.2,2.6,0.7,3.5,1.4
			c1,0.7,1.7,1.7,2.2,2.9c0.5,1.2,0.8,2.9,0.8,4.9v25.8c0,3.3,0.8,5.6,2.4,7c1.6,1.4,3.9,2.1,7,2.1c1.8,0,3.3-0.2,4.5-0.5
			s2.1-0.6,2.7-1v-42c0.8-0.2,2.1-0.5,3.8-0.7s3.5-0.4,5.3-0.4s3.3,0.1,4.7,0.4c1.4,0.2,2.6,0.7,3.5,1.4c1,0.7,1.7,1.7,2.2,2.9
			c0.5,1.2,0.8,2.9,0.8,4.9v36.5c0,4-1.7,7-5,9c-2.8,1.8-6.1,3.1-10,4s-8.1,1.4-12.7,1.4c-4.3,0-8.3-0.5-11.9-1.4
			c-3.6-1-6.8-2.4-9.4-4.4s-4.7-4.6-6.1-7.7c-1.4-3.2-2.2-7-2.2-11.5L118.5,272.4L118.5,272.4z"/>
		<path class="st0" d="M216.3,269.7c3.3,0,6.5,0.5,9.7,1.4s5.9,2.3,8.2,4.1c2.4-1.6,5.1-2.9,8.1-4c3-1,6.6-1.6,10.9-1.6
			c3,0,6,0.4,8.9,1.2c2.9,0.8,5.5,2.1,7.8,3.8c2.3,1.7,4.1,4,5.5,6.8s2,6.3,2,10.4v37.8c-0.8,0.2-2.1,0.5-3.8,0.7
			c-1.7,0.2-3.5,0.4-5.3,0.4s-3.3-0.1-4.7-0.4c-1.4-0.2-2.6-0.7-3.5-1.4s-1.7-1.7-2.2-2.9c-0.5-1.2-0.8-2.9-0.8-4.9v-28.7
			c0-2.4-0.7-4.1-2-5.2c-1.4-1.1-3.2-1.6-5.5-1.6c-1.1,0-2.3,0.3-3.6,0.8s-2.2,1.1-2.9,1.6c0.1,0.3,0.1,0.6,0.1,0.9s0,0.5,0,0.8v40
			c-0.9,0.2-2.2,0.5-3.9,0.7s-3.5,0.4-5.2,0.4c-1.8,0-3.3-0.1-4.7-0.4c-1.4-0.2-2.6-0.7-3.5-1.4s-1.7-1.7-2.2-2.9
			c-0.5-1.2-0.8-2.9-0.8-4.9v-28.7c0-2.4-0.7-4.1-2.2-5.2s-3.3-1.6-5.3-1.6c-1.4,0-2.7,0.2-3.7,0.7c-1,0.4-1.9,0.9-2.6,1.3v42.1
			c-0.8,0.2-2.1,0.5-3.8,0.7s-3.5,0.4-5.3,0.4s-3.3-0.1-4.7-0.4c-1.4-0.2-2.6-0.7-3.5-1.4s-1.7-1.7-2.2-2.9
			c-0.5-1.2-0.8-2.9-0.8-4.9V285c0-2.2,0.5-3.9,1.4-5.2c0.9-1.3,2.2-2.5,3.8-3.6c2.7-1.9,6.1-3.5,10.1-4.7
			C207.7,270.3,211.9,269.7,216.3,269.7z"/>
	</g>
	<path id="centre_2_" class="st3" d="M41,288.6"/>
</g>
</svg>
