<?xml version="1.0" encoding="utf-8"?>
<!-- Generator: Adobe Illustrator 19.0.0, SVG Export Plug-In . SVG Version: 6.00 Build 0)  -->
<svg version="1.1" id="user" xmlns="http://www.w3.org/2000/svg" xmlns:xlink="http://www.w3.org/1999/xlink" x="0px" y="0px"
	 viewBox="-219 21 520 520" style="enable-background:new -219 21 520 520;" xml:space="preserve">
<style type="text/css">
	.st0{fill:#FFFFFF;}
</style>
<path id="user_1_" class="st0" d="M-176.1,482.6c0-6.4-0.4-12.8,0.1-19c1.3-17.8,4.7-35.1,12.2-51.5c7.7-16.8,19.2-29.9,35.5-39
	c24.8-13.9,51.7-22.7,78.4-31.8c10.1-3.5,20.2-7.2,30-11.5c9-4,15.7-16.9,14.7-26.6c-0.1-1.3-0.9-2.5-1.8-3.7
	c-21.3-30.1-32.6-63.9-38.2-99.9c-3.1-19.7-3.8-39.5-0.1-59.2c6.3-34,27.9-54.8,62.1-59.4c16.1-2.2,32.3-2.4,48.3,0.6
	c34.5,6.6,54.9,28,59.5,62.7c5.6,42.1-3.2,82.1-19.6,120.7c-4.5,10.6-11,20.4-16.5,30.6c-1.1,2-2,4.5-1.9,6.8
	c0.6,14.9,6.3,26.3,21.6,31.4c21.1,7.2,42.2,14.5,63,22.5c11.9,4.5,23.4,10.4,34.9,16c24.8,12,38.9,32.6,46,58.6
	c4.1,15.3,6.1,31,6,46.8c0,1.6-0.2,3.1-0.3,4.7C113,482.6-31.5,482.6-176.1,482.6z"/>
</svg>
